<svg id="Layer_1" data-name="Layer 1" xmlns="http://www.w3.org/2000/svg" viewBox="0 0 571.81 208.53"><defs><style>.cls-1{fill:#ea4998;}</style></defs><path class="cls-1" d="M24.25,404.84c7.5-17.64,14.92-35,22.27-52.42C60.65,319,74.83,285.64,88.76,252.15c2.27-5.45,3.63-11.31,5-17.08,1.43-6.07-2-8.24-7.11-6.31-6.56,2.47-13.76,4.84-18.86,9.33-14.18,12.5-27.46,26-41,39.28-2.57,2.52-4.52,5.67-7,8.78-5.14-10.89-5.39-13.54,2.75-20,15.67-12.5,31.75-24.54,48.26-35.89,5.36-3.68,12.44-5.6,19-6.61,11.27-1.73,16.74,2.91,15.48,14.14-1.18,10.55-4.76,20.85-7.52,31.2-.93,3.48-2.57,6.77-4.71,12.27,7.28-8.41,12.51-15.75,19-21.62,7.28-6.54,15.13-13,23.85-17.21,12.48-6,21.65.47,19.79,14-1.64,11.9-6,23.46-9.63,35-1.9,6.1-4.74,11.9-6.2,18.26,6.85-7.79,13.12-16.22,20.74-23.15a78.18,78.18,0,0,1,21.7-14.36c10.32-4.36,18.83,1.57,18.06,12.74a110.32,110.32,0,0,1-6.67,31.32C182.76,345.4,170.57,374.1,158.92,403c-1.69,4.19-3.42,8.5-4.08,12.92-.45,3,.94,6.28,1.51,9.43,2.83-.83,6.08-1.05,8.4-2.63,3.94-2.69,7.3-6.24,12-10.43.64,2.22,2.06,4.7,1.44,5.42-6,6.92-12.41,13.42-22.34,14-8.9.54-15.66-4.65-14.7-13.52a120.21,120.21,0,0,1,7.5-31.08c10.88-27.38,22.92-54.3,34.23-81.51a151.65,151.65,0,0,0,6.68-21c.6-2.39.18-6.53-1.34-7.58s-5.84-.49-7.71,1c-8.27,6.34-17.13,12.34-23.89,20.11a230.39,230.39,0,0,0-41.73,68.68c-3.46,9-7.43,17.78-11.14,26.67-5.36,12.85-5.35,12.85-20.72,11.56,1.39-3.54,2.61-6.85,4-10.11q25.54-61.18,51.07-122.38a93.58,93.58,0,0,0,5.36-16.1c.7-3.27-.34-6.93-.59-10.41-3.46.79-7.69.58-10.23,2.56-7.77,6.06-15.73,12.24-22.11,19.66-20.16,23.42-34.64,50.3-46.12,78.91-6.33,15.78-13.27,31.31-20,46.93C39.06,406.49,39,406.47,24.25,404.84Z" transform="translate(-16.21 -223.26)"/><path class="cls-1" d="M530.82,395.13c18.84-4.95,30.4-43.31,19.16-63-10.45,13.11-20.39,26.53-31.34,39.05-11.29,12.9-24.84,23.21-40.9,29.77a54,54,0,0,1-10.42,3.53c-5.58,1.05-12.09,4-15.86-3-2-3.78,5.59-13.59,11.55-15.2,8.42-2.27,3.86,6.17,6.75,8.52,18.26-3.45,29.92-40.95,19.14-63-10.31,13-20,26.27-30.76,38.5a209,209,0,0,1-28.22,26.88,42,42,0,0,1-20.87,8c-15.63,1.47-23.57-7.47-22.64-23.27.11-2,.4-3.92.87-8.42-6.69,8.07-11.78,14.65-17.36,20.78-3.38,3.71-7.08,7.7-11.49,9.72-3.3,1.51-9.17,1.56-11.65-.48-2.27-1.86-2.93-7.85-1.83-11.22,3.32-10.22,7.83-20.05,11.9-30q6.22-15.24,12.52-30.51c-5.69-3.49-8.84-1.88-12,2.55-6.23,8.78-12.91,17.25-19.52,25.75a63.68,63.68,0,0,1-5.33,5.45l-2.42-2,26.27-35c-7.72-5.52-7.42-12.05-2.19-18.88,3.3-4.3,8.21-6.67,12.39-3.21,2,1.64,1,7.3.65,11.09-.13,1.75-1.78,3.38-3.61,6.59,4,0,6.86.05,9.75,0,9.44-.19,12.2,2.9,8.83,11.89-5.75,15.39-12.39,30.44-18.52,45.69a87.4,87.4,0,0,0-2.63,9.25l2,1.47c2.86-2.37,6.22-4.35,8.49-7.19q13.53-16.9,26.49-34.29c10.56-14.13,22.66-26.19,40.31-30.89,10.47-2.79,18.38,3.06,16.54,13.57a45.33,45.33,0,0,1-9.64,20.11c-9.14,11-21.86,16.79-35.91,19.37-6.12,1.13-10,10.51-8.22,19.94,1.46,7.6,7.22,9.28,12.81,6.78,8.13-3.64,17-7.66,22.84-14,16.47-17.88,31.62-37,47.07-55.79,1.35-1.64,1.6-4.56,1.56-6.88-.13-7.26,6.16-16.13,13.37-17.57,2.26-.45,5.67-.15,7,1.26,1,1.11-.23,4.48-.71,6.8-.66,3.14-3,6.7-2.11,9.27,7.79,23.55,3.2,44.71-11.76,64.18l2,1.72c7.78-7.18,16.26-13.75,23.18-21.68,9.85-11.31,18.71-23.5,27.61-35.59,1.75-2.37,2.41-6,2.47-9,.15-7.3,7.83-16.67,15.09-17.15a8.25,8.25,0,0,1,5.89,2c.8.84.3,4-.71,5.31-3.85,4.85-3.22,9.61-1.5,15.09,5.8,18.52,2.25,35.82-7.75,52.08-1.55,2.52-3.14,5-4.72,7.51l1.79,1.68c10.59-9.91,21.17-19.82,33.44-31.29-.67,3.46-.54,4.69-1.08,5.36-15.71,19.27-34.18,34.75-58.68,41.48-5.23,1.44-12.62,3.8-14.86-2.78-1.1-3.25,3.48-9.59,7-13C526.47,383,528.9,384.53,530.82,395.13ZM405.77,368.68c17.74-2.38,34.71-19.17,36.33-35.3.25-2.51-1-5.17-1.62-7.76-2.59.68-5.88.57-7.66,2.16C420.33,338.83,412.62,353,405.77,368.68Z" transform="translate(-16.21 -223.26)"/><path class="cls-1" d="M203.49,405c7-16.82,13.65-33,20.76-50.13l-15-.7c2.05-7.65,5.11-13.27,14.27-11.56,4.92.92,6.91-1.84,8.6-6,6.86-16.77,13.81-33.51,21.12-50.09,7.8-17.71,18.88-32.91,35.57-43.38,10-6.29,20.84-9.82,32.89-9.56,24,.51,40.35,19.61,34.14,42.74a79.41,79.41,0,0,1-17,31.62c-23.38,25.88-53.29,40.57-88.05,44.75-7.09.86-11.69,3.08-14.11,10.62-3.28,10.21-8.1,19.92-12.24,29.85C219,406.17,219.05,406.17,203.49,405Zm40.27-62.19c21.48-1.6,39.84-3,56.34-12,26.66-14.66,40.13-37.75,40.08-68,0-20.89-17-30.93-35.09-20.44-8.54,5-17.5,12-22.08,20.44C269.14,288.24,257.31,314.8,243.76,342.84Z" transform="translate(-16.21 -223.26)"/></svg>