<svg id="Layer_1" data-name="Layer 1" xmlns="http://www.w3.org/2000/svg" viewBox="0 0 476.23 152.91"><defs><style>.cls-1{fill:#ea4998;}</style></defs><path class="cls-1" d="M82.84,380.49c-3.63,3.79-8.3,4.92-13.29,4s-8.87-4.18-9.65-9a57.47,57.47,0,0,1-.35-17.75C62.18,341,69.91,326.84,83.07,316c15-12.36,34-8,42.58,9.45,5.34,10.89,6.26,22.7,7.18,34.51a7.91,7.91,0,0,0,1.24,4.15,43.46,43.46,0,0,1,1.51-4.69c4.09-9.07,8.07-18.2,12.5-27.1,1.36-2.75,3.82-5.05,6.08-7.23,11.63-11.25,23-8.48,28,6.92,3.44,10.65,3.21,21.68,2.45,32.69a11.62,11.62,0,0,0,.64,5.78c.74-1.65,1.55-3.28,2.22-5,6-15,12.1-30.15,23.18-42.28a45.81,45.81,0,0,1,15.51-11.12c8.3-3.5,14.23.59,16.07,9.43.37,1.78.71,3.56,1.12,5.61,18.79-8.08,38.43-9.7,58.24-8.71,10.05.5,20,2.89,30,4.66a25.54,25.54,0,0,1,6.92,2.78c10.1,5.21,13.42,12.33,11.11,23.52-3.79,18.41-21.19,34.32-41.27,37.28-6.71,1-13.55,1-21.08,1.56-1.32,11.75-2.43,23.78,1.33,35.61,1.7,5.33,5.88,5.18,10.25,2.92.17,5.95-4.76,9.41-10.25,7.49-5.21-1.82-8.57-5.74-9.05-11-1.22-13.23-3.07-26.58-2.36-39.76,1-17.57,4.09-35,6.28-52.52.14-1.11.18-2.23.39-4.8-9.8,2.52-19,4.44-27.91,7.32-7.56,2.44-8.18,4-8.38,11.88l-5.31-3.72c-1.31,5.47-2.66,10.73-3.84,16-4.65,21-9.74,41.84-13.6,62.94-1.37,7.49-.18,15.59.74,23.3.67,5.62,3.53,10.6,9.83,12s11.45-.91,15.92-5.19a37.56,37.56,0,0,0,2.55-2.94l1.41.57c-1,2.27-1.67,4.9-3.21,6.75-9,10.83-26,8.3-32.16-5.12a54.63,54.63,0,0,1-4.27-17.32c-1.78-18.86,2.68-37.1,6.3-55.4,3.11-15.68,6.06-31.39,8.74-47.14.64-3.75,1.8-9.37-2.64-10.59-3.11-.85-8.07,1.57-11,4-10,8.47-15.81,20-21,31.83-7.79,17.67-12.33,36.22-14.93,55.31-.3,2.23-.83,5.1-2.34,6.32-1.88,1.52-4.9,1.63-7.42,2.36-.56-2.05-1.76-4.15-1.58-6.13,1.69-18.72,4.15-37.39,5.19-56.14.4-7.25-1.37-15-3.74-22-3.41-10-11.07-11.4-17.55-3.1a99.5,99.5,0,0,0-12.52,22c-7.13,16.6-8.89,34.42-10.13,52.25-.49,7.15-.75,14.32-1.24,21.46-.39,5.75-2.65,7.71-7.81,7-4.89-.65-6.24-2.88-5.74-8.29,1.87-20.22,4-40.43,5.21-60.69a80.63,80.63,0,0,0-4.94-33.42c-3.09-8.24-7.34-15.94-16.91-17.32-9.3-1.33-15.67,4.56-20.9,11.38a62.05,62.05,0,0,0-12.93,38.1C65.58,378.08,69.86,382.2,82.84,380.49Zm204.28.68c3.22,0,5,.16,6.79,0,13.9-1.49,26.82-5.86,37.16-15.44a46.17,46.17,0,0,0,11.22-15.56c5.15-12.37.6-20.79-12.52-23.18-9.25-1.68-18.84-1.56-28.28-2.17-3-.19-4.52,1.28-5,4.32-.51,3.45-1.54,6.82-2.15,10.27C292,353,289.65,366.57,287.12,381.17Z" transform="translate(-59.01 -308.95)"/><path class="cls-1" d="M467.43,354.23c-4.07,5.58-3.48,11.06-2.4,16.48a84.23,84.23,0,0,0,3.27,11.51c3.34,9.48,6.49,19,4.26,29.14,7.14,1.92,10.69-.47,11.64-7,.21-1.44,1.82-2.65,2.7-4a19.27,19.27,0,0,0,2.62-4.43c3.07-9.68,5.86-19.45,9-29.12,1.9-5.87,5.81-10.09,11.87-11.88,1.81-.53,3.81-.45,6.61-.74-5.94,7.23-4.3,14.37-2.37,21.38,1.68,6.09,4.33,12,5.66,18.11,1.23,5.76,1.29,11.78,1.94,18.43,4.94,1.19,9.08-1.84,13-5.94.13,3.72-.67,5.94-4.77,7-7.37,2-12.93,5.82-18.31,11.19-5.19,5.19-16.88,5.06-22.38.24-3.08-2.7-4.5-7.29-6.74-11.14-3,.66-6.92,1.3-10.67,2.49-1.34.43-2.42,2.07-3.36,3.35-6,8.08-16.3,11.19-25.28,6.72-3.3-1.64-5.67-5.13-8.88-8.16-3.92,6.65-10.26,10.82-19.21,9.88-9.12-.95-13-7.78-16.75-15.66a42,42,0,0,1-2,4.46c-1.37,2.26-2.61,4.72-4.42,6.58-3.85,3.93-8.75,5.63-14.16,4.3s-8.12-5.73-8.58-10.65a180.66,180.66,0,0,1-.56-24.84c.27-6.07,1.78-12.07,2.73-18.11l-10.63-3.51c-2.42,15.59-3.77,31.38-9.5,46.12l-1.89-.42c.36-1.64.79-3.26,1.08-4.9q3.35-19.67,6.64-39.32c.48-2.86-.7-4.68-2.75-6.86-2.2-2.34-3.41-5.9-4.2-9.13-.32-1.27,1.64-3.11,2.57-4.69,1.55,1,3.67,1.71,4.51,3.14,1.49,2.55,1.9,5.71,3.32,8.3,1.14,2.09,2.87,4.88,4.77,5.26,2.47.5,6.24-.22,7.89-1.93,3.76-3.89,7.39-4.62,12.12-2.22-1.78,7-4.22,13.74-5.12,20.72-1.2,9.35-1.22,18.86-1.73,28.31a5.36,5.36,0,0,0,.16,1.49c.88,3.68,1.05,8.23,5.84,8.88s6.93-3.3,8.07-6.87c1.9-5.93,3.69-12.09,4.16-18.25.82-10.62,2.22-20.91,8.23-30,4.37-6.6,10.24-10.89,18.59-10.71,6.08.14,9.55,3.43,10.05,9.49,1,11.87-6.43,23.07-19.58,27.64-5.47,1.9-5.91,4.81-5.05,9.26a61.82,61.82,0,0,0,1.74,7.79c2.36,7,7.38,10.62,13.26,9.75,5.44-.81,10.7-7,11.08-13.25.21-3.32-.91-7,3.93-8.41,1.07-.31,1.47-3.17,2-4.91,2.77-9.08,5.36-18.22,8.27-27.25,1.93-6,5.71-10.55,12-12.41A33.41,33.41,0,0,1,467.43,354.23Zm-7.88,57.51c3-16.83-4-31.17-4.48-46.48-.68.44-.89.5-.93.61-3.93,12-7.89,24-11.66,36.06-.24.79.77,2.59,1.63,3C448.87,407.23,453.76,409.23,459.55,411.74Zm42.82-46.27c-3.78,12-7.6,24.06-11.28,36.12-.26.84.23,2.6.86,2.91,5.12,2.45,10.36,4.65,16.06,7.14C510.85,394.92,504.3,380.57,502.37,365.47Zm-93,27.59a39.17,39.17,0,0,0,5.1-2c7.6-4.34,13.05-15.65,11.37-24.34-.41-2.11-2.18-5.3-3.66-5.5-1.8-.24-4.72,1.68-5.83,3.49C411.18,373.13,409.89,382.6,409.35,393.06Zm30.58,19.27c-.88,6.25,2,10.4,7.34,10.88,5,.46,9.79-3,10-7.43Zm48.66.05c-1,5.47,1,9.21,5.55,10.55,4.71,1.38,10.29-1.66,12.23-7Z" transform="translate(-59.01 -308.95)"/></svg>